<?xml version="1.0" standalone="no"?><!DOCTYPE svg PUBLIC "-//W3C//DTD SVG 1.1//EN" "http://www.w3.org/Graphics/SVG/1.1/DTD/svg11.dtd"><svg t="1517975411868" class="icon" style="" viewBox="0 0 1024 1024" version="1.1" xmlns="http://www.w3.org/2000/svg" p-id="3649" xmlns:xlink="http://www.w3.org/1999/xlink" width="200" height="200"><defs><style type="text/css"></style></defs><path d="M917.333333 298.666667c-6.4 0-10.666667 2.133333-14.933333 6.4L512 674.133333 121.6 305.066667C117.333333 300.8 113.066667 298.666667 106.666667 298.666667c-12.8 0-21.333333 8.533333-21.333333 21.333333 0 6.4 2.133333 10.666667 6.4 14.933333l405.333333 384c4.266667 4.266667 8.533333 6.4 14.933333 6.4 6.4 0 10.666667-2.133333 14.933333-6.4l405.333333-384c4.266667-4.266667 6.4-8.533333 6.4-14.933333C938.666667 307.2 930.133333 298.666667 917.333333 298.666667z" p-id="3650" fill="#515151"></path></svg>