<?xml version="1.0" standalone="no"?><!DOCTYPE svg PUBLIC "-//W3C//DTD SVG 1.1//EN" "http://www.w3.org/Graphics/SVG/1.1/DTD/svg11.dtd"><svg t="1517194239208" class="icon" style="" viewBox="0 0 1024 1024" version="1.1" xmlns="http://www.w3.org/2000/svg" p-id="5419" xmlns:xlink="http://www.w3.org/1999/xlink" width="200" height="200"><defs><style type="text/css"></style></defs><path d="M867.669333 870.741333c0 3.072-2.389333 5.461333-5.461333 5.461334H696.32v44.373333h165.888c27.306667 0 49.493333-22.186667 49.493333-49.493333v-165.888h-44.373333v165.546666zM138.24 870.741333V151.893333c0-3.072 2.389333-5.461333 5.461333-5.461333h718.848c3.072 0 5.461333 2.389333 5.461334 5.461333v165.888h44.373333V151.893333c0-27.306667-22.186667-49.493333-49.493333-49.493333H143.36c-27.306667 0-49.493333 22.186667-49.493333 49.493333v718.848c0 27.306667 22.186667 49.493333 49.493333 49.493334h165.888v-44.373334H143.36c-2.730667 0.341333-5.12-2.389333-5.12-5.12z" p-id="5420" fill="#ffffff"></path><path d="M670.72 291.84c8.533333-8.874667 8.533333-22.869333-0.341333-31.402667-8.533333-8.533333-22.869333-8.533333-31.402667 0.341334l-191.829333 194.56-94.208-93.184-128.682667 133.461333c-8.533333 8.874667-8.192 22.869333 0.682667 31.402667 4.437333 4.096 9.898667 6.144 15.36 6.144 5.802667 0 11.605333-2.389333 16.042666-6.826667l97.621334-101.376 93.866666 92.842667 222.890667-225.962667zM895.317333 451.925333c-46.421333-46.421333-121.856-46.421333-167.936 0l-285.013333 285.013334-17.066667 185.002666 185.002667-17.066666 285.013333-285.013334c46.421333-46.421333 46.421333-121.514667 0-167.936zM590.506667 862.549333l-116.053334 10.581334 10.581334-116.053334 216.746666-216.746666 105.472 105.472-216.746666 216.746666z m273.749333-273.749333l-25.941333 25.941333-105.472-105.472 25.941333-25.941333c29.013333-29.013333 76.458667-29.013333 105.472 0s29.013333 76.117333 0 105.472z" p-id="5421" fill="#ffffff"></path></svg>