<?xml version="1.0" standalone="no"?><!DOCTYPE svg PUBLIC "-//W3C//DTD SVG 1.1//EN" "http://www.w3.org/Graphics/SVG/1.1/DTD/svg11.dtd"><svg t="1517796169621" class="icon" style="" viewBox="0 0 1024 1024" version="1.1" xmlns="http://www.w3.org/2000/svg" p-id="2128" xmlns:xlink="http://www.w3.org/1999/xlink" width="200" height="200"><defs><style type="text/css"></style></defs><path d="M924.349 384.815c-22.92-22.918-53.537-35.569-86.178-35.569-32.636 0-63.252 12.651-86.173 35.569l-352.03 352.124c-4.401 4.4-7.336 9.904-8.527 15.955l-31.995 160.062c-2.017 10.271 1.189 20.905 8.521 28.237a31.262 31.262 0 0 0 22.096 9.17c2.017 0 4.125-0.185 6.142-0.645l160.068-31.903c6.048-1.188 11.643-4.217 15.949-8.525l352.126-352.124c22.918-22.918 35.569-53.539 35.569-86.178 0.001-32.634-12.65-63.254-35.568-86.173z m-44.192 44.187c23.106 23.102 23.106 60.688 0 83.793l-7.883 7.882-83.788-83.793 7.883-7.883c23.102-23.101 60.69-23.101 83.788 0.001z m-345.43 429.316l-104.785 20.993 20.905-104.874 293.356-293.362 83.793 83.789-293.269 293.454z m307.02-107.901c-17.23 0-31.26 14.024-31.26 31.261v106.161H707.171c-17.237 0-31.26 14.027-31.26 31.264 0 17.23 14.022 31.261 31.26 31.261H841.66c17.233 0 31.26-14.03 31.26-31.261V781.678c0.092-17.237-13.94-31.261-31.173-31.261zM240.268 887.839H125.95V135.457h684.446v100.109c0 17.236 14.029 31.261 31.265 31.261 17.233 0 31.26-14.025 31.26-31.261v-131.37c0-17.235-14.026-31.26-31.26-31.26H94.685c-17.236 0-31.26 14.024-31.26 31.26v814.906c0 17.23 14.024 31.261 31.26 31.261h145.583c17.236 0 31.26-14.03 31.26-31.261 0-17.236-13.932-31.263-31.26-31.263z m237.623-394.203l221.122-221.122c12.189-12.192 12.189-31.996 0-44.187-12.191-12.197-31.997-12.197-44.187 0L455.794 427.261l-82.232-82.231c-12.191-12.196-31.995-12.196-44.187 0L218.173 456.141c-12.192 12.192-12.192 31.996 0 44.187 6.142 6.142 14.116 9.165 22.095 9.165 7.975 0 16.041-3.022 22.092-9.165l89.016-89.017 82.235 82.232c12.284 12.283 32.083 12.283 44.28 0.093z m0 0" p-id="2129" fill="#505050"></path></svg>