<?xml version="1.0" standalone="no"?><!DOCTYPE svg PUBLIC "-//W3C//DTD SVG 1.1//EN" "http://www.w3.org/Graphics/SVG/1.1/DTD/svg11.dtd"><svg t="1517796199388" class="icon" style="" viewBox="0 0 1024 1024" version="1.1" xmlns="http://www.w3.org/2000/svg" p-id="2884" xmlns:xlink="http://www.w3.org/1999/xlink" width="200" height="200"><defs><style type="text/css"></style></defs><path d="M450.1 832 108.4 832c-24.5 0-44.4-19.9-44.4-44.4L64 384l832 0L896 172.4c0-59.8-48.6-108.4-108.4-108.4L704 64l0-64-64 0 0 64L256 64l0-64-64 0 0 64-83.6 0C48.6 64 0 112.6 0 172.4l0 615.2c0 59.8 48.6 108.4 108.4 108.4l341.7 0c17.7 0 32-14.3 32-32S467.8 832 450.1 832zM64 172.4c0-24.5 19.9-44.4 44.4-44.4L192 128l0 96 64 0 0-96 384 0 0 96 64 0 0-96 83.6 0c24.5 0 44.4 19.9 44.4 44.4l0 147.6L64 320 64 172.4zM160 480l224 0 0 64-224 0 0-64ZM160 672l224 0 0 64-224 0 0-64ZM800 576 736 576 736 672 736 736 800 736 896 736 896 672 800 672ZM949 523c-48.4-48.4-112.6-75-181-75s-132.7 26.6-181 75c-48.4 48.4-75 112.6-75 181s26.6 132.7 75 181c48.4 48.4 112.6 75 181 75s132.7-26.6 181-75c48.4-48.4 75-112.6 75-181S997.4 571.3 949 523zM768 896c-105.9 0-192-86.1-192-192s86.1-192 192-192 192 86.1 192 192S873.9 896 768 896z" p-id="2885" fill="#505050"></path></svg>