<?xml version="1.0" standalone="no"?><!DOCTYPE svg PUBLIC "-//W3C//DTD SVG 1.1//EN" "http://www.w3.org/Graphics/SVG/1.1/DTD/svg11.dtd"><svg t="1516954295095" class="icon" style="" viewBox="0 0 1024 1024" version="1.1" xmlns="http://www.w3.org/2000/svg" p-id="853" xmlns:xlink="http://www.w3.org/1999/xlink" width="200" height="200"><defs><style type="text/css"></style></defs><path d="M76.8 76.8l281.6 0L358.4 0 0 0l0 358.4 76.8 0L76.8 76.8 76.8 76.8zM665.6 0l0 76.8 281.6 0 0 281.6L1024 358.4 1024 0 665.6 0 665.6 0zM76.8 665.6 0 665.6 0 1024l358.4 0 0-76.8L76.8 947.2 76.8 665.6 76.8 665.6zM947.2 947.2 665.6 947.2 665.6 1024 1024 1024 1024 665.6l-76.8 0L947.2 947.2 947.2 947.2zM153.6 537.6l716.8 0 0-51.2L153.6 486.4 153.6 537.6 153.6 537.6zM153.6 537.6" p-id="854" fill="#ffffff"></path></svg>