<?xml version="1.0" standalone="no"?><!DOCTYPE svg PUBLIC "-//W3C//DTD SVG 1.1//EN" "http://www.w3.org/Graphics/SVG/1.1/DTD/svg11.dtd"><svg t="1517558011784" class="icon" style="" viewBox="0 0 1049 1024" version="1.1" xmlns="http://www.w3.org/2000/svg" p-id="11773" xmlns:xlink="http://www.w3.org/1999/xlink" width="204.8828125" height="200"><defs><style type="text/css"></style></defs><path d="M150.272 12.928A135.8848 135.8848 0 0 0 14.0032 149.1712a135.8848 135.8848 0 0 0 136.2688 136.2432 135.8848 135.8848 0 0 0 136.2432-136.2432c0-75.52-62.208-136.2432-136.2432-136.2432z m0 199.936a63.232 63.232 0 0 1-63.6928-63.6928A63.232 63.232 0 0 1 150.272 85.4784a63.232 63.232 0 0 1 63.6928 63.6928A63.232 63.232 0 0 1 150.272 212.864z m271.0272-28.16H998.912c19.2512 0 35.5328-16.2816 35.5328-35.5328 0-19.2512-16.2816-35.5328-35.5328-35.5328H421.2992c-19.2512 0-35.5328 16.2816-35.5328 35.5328 0 19.2512 16.2816 35.5328 35.5328 35.5328zM150.272 372.8128a135.8848 135.8848 0 0 0-136.2688 136.2432 135.8848 135.8848 0 0 0 136.2688 136.2688 135.8848 135.8848 0 0 0 136.2432-136.2688c0-75.52-62.208-136.2432-136.2432-136.2432z m0 199.936a63.232 63.232 0 0 1-63.6928-63.6928 63.232 63.232 0 0 1 63.6928-63.6672 63.232 63.232 0 0 1 63.6928 63.6672 63.232 63.232 0 0 1-63.6928 63.6928z m850.1248-99.2256H422.784c-19.2512 0-35.5584 16.2816-35.5584 35.5328 0 19.2512 16.3072 35.5584 35.5584 35.5584h577.6128c19.2512 0 35.5328-16.3072 35.5328-35.5584s-16.2816-35.5328-35.5328-35.5328zM150.272 732.672a135.8848 135.8848 0 0 0-136.2688 136.2688 135.8848 135.8848 0 0 0 136.2688 136.2432 135.8848 135.8848 0 0 0 136.2432-136.2432c0-75.52-62.208-136.2688-136.2432-136.2688z m0 199.936a63.232 63.232 0 0 1-63.6928-63.6672 63.232 63.232 0 0 1 63.6928-63.6928 63.232 63.232 0 0 1 63.6928 63.6928A63.232 63.232 0 0 1 150.272 932.608z m850.1248-99.2256H422.784c-19.2512 0-35.5584 16.3072-35.5584 35.5584s16.3072 35.5328 35.5584 35.5328h577.6128c19.2512 0 35.5328-16.2816 35.5328-35.5328 0-19.2512-16.2816-35.5584-35.5328-35.5584z" fill="#505050" p-id="11774"></path></svg>